<svg xmlns="http://www.w3.org/2000/svg" xmlns:xlink="http://www.w3.org/1999/xlink" width="300" zoomAndPan="magnify" viewBox="0 0 224.87999 225" height="300" preserveAspectRatio="xMidYMid meet" version="1.0"><defs><clipPath id="id1"><path d="M 11.199219 42 L 213.589844 42 L 213.589844 189 L 11.199219 189 Z M 11.199219 42 " clip-rule="nonzero"/></clipPath><clipPath id="id2"><path d="M 11.199219 59 L 47 59 L 47 206.25 L 11.199219 206.25 Z M 11.199219 59 " clip-rule="nonzero"/></clipPath></defs><g clip-path="url(#id1)"><path fill="#d78e0c" d="M 11.199219 59.503906 C 11.199219 49.859375 19.007812 42.039062 28.644531 42.039062 L 213.589844 42.039062 L 213.589844 188.738281 L 11.199219 188.738281 Z M 11.199219 59.503906 " fill-opacity="1" fill-rule="nonzero"/></g><path fill="#ecebe6" d="M 199.632812 174.769531 L 25.15625 174.769531 L 25.15625 63.867188 C 25.15625 59.527344 28.671875 56.011719 33.007812 56.011719 L 199.632812 56.011719 Z M 199.632812 174.769531 " fill-opacity="1" fill-rule="nonzero"/><g clip-path="url(#id2)"><path fill="#b97a0a" d="M 11.199219 59.503906 C 11.199219 69.148438 19.007812 76.96875 28.644531 76.96875 L 46.09375 76.96875 L 46.09375 206.203125 L 28.644531 206.203125 C 19.007812 206.203125 11.199219 198.386719 11.199219 188.738281 Z M 11.199219 59.503906 " fill-opacity="1" fill-rule="nonzero"/></g><path fill="#d6d5d0" d="M 115.882812 87.445312 L 87.96875 87.445312 C 86.039062 87.445312 84.476562 85.882812 84.476562 83.953125 C 84.476562 82.023438 86.039062 80.460938 87.96875 80.460938 L 115.882812 80.460938 C 117.8125 80.460938 119.371094 82.023438 119.371094 83.953125 C 119.371094 85.882812 117.8125 87.445312 115.882812 87.445312 Z M 115.882812 87.445312 " fill-opacity="1" fill-rule="nonzero"/><path fill="#d6d5d0" d="M 126.351562 101.417969 L 77.5 101.417969 C 75.570312 101.417969 74.007812 99.855469 74.007812 97.925781 C 74.007812 95.996094 75.570312 94.433594 77.5 94.433594 L 126.351562 94.433594 C 128.277344 94.433594 129.839844 95.996094 129.839844 97.925781 C 129.839844 99.855469 128.277344 101.417969 126.351562 101.417969 Z M 126.351562 101.417969 " fill-opacity="1" fill-rule="nonzero"/><path fill="#d6d5d0" d="M 147.289062 129.359375 L 129.839844 129.359375 C 127.914062 129.359375 126.351562 127.796875 126.351562 125.867188 C 126.351562 123.9375 127.914062 122.375 129.839844 122.375 L 147.289062 122.375 C 149.214844 122.375 150.777344 123.9375 150.777344 125.867188 C 150.777344 127.796875 149.214844 129.359375 147.289062 129.359375 Z M 147.289062 129.359375 " fill-opacity="1" fill-rule="nonzero"/><path fill="#d6d5d0" d="M 147.289062 157.304688 L 133.332031 157.304688 C 131.402344 157.304688 129.839844 155.738281 129.839844 153.8125 C 129.839844 151.882812 131.402344 150.316406 133.332031 150.316406 L 147.289062 150.316406 C 149.214844 150.316406 150.777344 151.882812 150.777344 153.8125 C 150.777344 155.738281 149.214844 157.304688 147.289062 157.304688 Z M 147.289062 157.304688 " fill-opacity="1" fill-rule="nonzero"/><path fill="#d6d5d0" d="M 147.289062 143.332031 L 119.371094 143.332031 C 117.445312 143.332031 115.882812 141.769531 115.882812 139.839844 C 115.882812 137.910156 117.445312 136.347656 119.371094 136.347656 L 147.289062 136.347656 C 149.214844 136.347656 150.777344 137.910156 150.777344 139.839844 C 150.777344 141.769531 149.214844 143.332031 147.289062 143.332031 Z M 147.289062 143.332031 " fill-opacity="1" fill-rule="nonzero"/><path fill="#e42a3c" d="M 150.777344 49.023438 L 129.839844 80.460938 L 147.289062 76.96875 L 150.777344 94.433594 L 168.226562 62.996094 Z M 150.777344 49.023438 " fill-opacity="1" fill-rule="nonzero"/><path fill="#e42a3c" d="M 178.695312 49.023438 L 199.632812 80.460938 L 182.183594 76.96875 L 178.695312 94.433594 L 161.246094 62.996094 Z M 178.695312 49.023438 " fill-opacity="1" fill-rule="nonzero"/><path fill="#ecab2c" d="M 164.738281 22.59375 C 171.027344 18.910156 179.09375 22.253906 180.941406 29.3125 C 187.988281 31.160156 191.332031 39.234375 187.652344 45.53125 C 191.332031 51.828125 187.988281 59.902344 180.941406 61.75 C 179.09375 68.808594 171.027344 72.152344 164.738281 68.46875 C 158.445312 72.152344 150.378906 68.808594 148.535156 61.75 C 141.484375 59.902344 138.144531 51.828125 141.824219 45.53125 C 138.144531 39.234375 141.484375 31.160156 148.535156 29.3125 C 150.378906 22.253906 158.445312 18.910156 164.738281 22.59375 Z M 164.738281 22.59375 " fill-opacity="1" fill-rule="nonzero"/><path fill="#ffc864" d="M 175.207031 45.53125 C 175.207031 46.21875 175.136719 46.902344 175.003906 47.574219 C 174.871094 48.25 174.671875 48.90625 174.410156 49.542969 C 174.144531 50.175781 173.824219 50.78125 173.441406 51.351562 C 173.058594 51.925781 172.625 52.453125 172.140625 52.941406 C 171.652344 53.425781 171.125 53.863281 170.554688 54.242188 C 169.980469 54.625 169.378906 54.949219 168.742188 55.210938 C 168.109375 55.476562 167.453125 55.675781 166.777344 55.808594 C 166.105469 55.941406 165.425781 56.011719 164.738281 56.011719 C 164.050781 56.011719 163.367188 55.941406 162.695312 55.808594 C 162.019531 55.675781 161.367188 55.476562 160.730469 55.210938 C 160.09375 54.949219 159.492188 54.625 158.921875 54.242188 C 158.347656 53.863281 157.820312 53.425781 157.335938 52.941406 C 156.847656 52.453125 156.414062 51.925781 156.03125 51.351562 C 155.652344 50.78125 155.328125 50.175781 155.066406 49.542969 C 154.800781 48.90625 154.601562 48.25 154.46875 47.574219 C 154.335938 46.902344 154.269531 46.21875 154.269531 45.53125 C 154.269531 44.84375 154.335938 44.160156 154.46875 43.488281 C 154.601562 42.8125 154.800781 42.15625 155.066406 41.519531 C 155.328125 40.886719 155.652344 40.28125 156.03125 39.710938 C 156.414062 39.136719 156.847656 38.609375 157.335938 38.121094 C 157.820312 37.636719 158.347656 37.199219 158.921875 36.820312 C 159.492188 36.4375 160.09375 36.113281 160.730469 35.851562 C 161.367188 35.585938 162.019531 35.386719 162.695312 35.253906 C 163.367188 35.121094 164.050781 35.050781 164.738281 35.050781 C 165.425781 35.050781 166.105469 35.121094 166.777344 35.253906 C 167.453125 35.386719 168.109375 35.585938 168.742188 35.851562 C 169.378906 36.113281 169.980469 36.4375 170.554688 36.820312 C 171.125 37.199219 171.652344 37.636719 172.140625 38.121094 C 172.625 38.609375 173.058594 39.136719 173.441406 39.710938 C 173.824219 40.28125 174.144531 40.886719 174.410156 41.519531 C 174.671875 42.15625 174.871094 42.8125 175.003906 43.488281 C 175.136719 44.160156 175.207031 44.84375 175.207031 45.53125 Z M 175.207031 45.53125 " fill-opacity="1" fill-rule="nonzero"/><path fill="#ffc864" d="M 104.5 138.550781 C 104.5 139.28125 104.464844 140.007812 104.390625 140.730469 C 104.320312 141.457031 104.214844 142.175781 104.070312 142.890625 C 103.929688 143.605469 103.753906 144.3125 103.542969 145.007812 C 103.332031 145.707031 103.085938 146.390625 102.808594 147.0625 C 102.527344 147.738281 102.21875 148.394531 101.875 149.039062 C 101.53125 149.679688 101.15625 150.304688 100.753906 150.910156 C 100.347656 151.515625 99.917969 152.101562 99.453125 152.664062 C 98.992188 153.226562 98.503906 153.765625 97.988281 154.28125 C 97.476562 154.796875 96.9375 155.285156 96.375 155.746094 C 95.8125 156.210938 95.226562 156.644531 94.621094 157.046875 C 94.015625 157.453125 93.394531 157.828125 92.75 158.171875 C 92.109375 158.511719 91.453125 158.824219 90.78125 159.101562 C 90.105469 159.382812 89.421875 159.628906 88.726562 159.839844 C 88.03125 160.050781 87.324219 160.226562 86.609375 160.371094 C 85.898438 160.511719 85.179688 160.617188 84.453125 160.691406 C 83.730469 160.761719 83.003906 160.796875 82.273438 160.796875 C 81.546875 160.796875 80.820312 160.761719 80.097656 160.691406 C 79.371094 160.617188 78.652344 160.511719 77.9375 160.371094 C 77.226562 160.226562 76.519531 160.050781 75.824219 159.839844 C 75.128906 159.628906 74.441406 159.382812 73.769531 159.101562 C 73.097656 158.824219 72.441406 158.511719 71.800781 158.171875 C 71.15625 157.828125 70.535156 157.453125 69.929688 157.046875 C 69.324219 156.644531 68.738281 156.210938 68.175781 155.746094 C 67.613281 155.285156 67.074219 154.796875 66.558594 154.28125 C 66.046875 153.765625 65.558594 153.226562 65.097656 152.664062 C 64.632812 152.101562 64.199219 151.515625 63.796875 150.910156 C 63.390625 150.304688 63.019531 149.679688 62.675781 149.039062 C 62.332031 148.394531 62.019531 147.738281 61.742188 147.0625 C 61.464844 146.390625 61.21875 145.707031 61.007812 145.007812 C 60.796875 144.3125 60.621094 143.605469 60.476562 142.890625 C 60.335938 142.175781 60.230469 141.457031 60.160156 140.730469 C 60.085938 140.007812 60.050781 139.28125 60.050781 138.550781 C 60.050781 137.824219 60.085938 137.097656 60.160156 136.371094 C 60.230469 135.644531 60.335938 134.925781 60.476562 134.210938 C 60.621094 133.496094 60.796875 132.792969 61.007812 132.09375 C 61.21875 131.398438 61.464844 130.710938 61.742188 130.039062 C 62.019531 129.367188 62.332031 128.707031 62.675781 128.066406 C 63.019531 127.421875 63.390625 126.796875 63.796875 126.191406 C 64.199219 125.585938 64.632812 125.003906 65.097656 124.4375 C 65.558594 123.875 66.046875 123.335938 66.558594 122.820312 C 67.074219 122.304688 67.613281 121.816406 68.175781 121.355469 C 68.738281 120.894531 69.324219 120.460938 69.929688 120.054688 C 70.535156 119.648438 71.15625 119.277344 71.800781 118.933594 C 72.441406 118.589844 73.097656 118.277344 73.769531 118 C 74.441406 117.71875 75.128906 117.476562 75.824219 117.265625 C 76.519531 117.050781 77.226562 116.875 77.9375 116.734375 C 78.652344 116.589844 79.371094 116.484375 80.097656 116.414062 C 80.820312 116.339844 81.546875 116.304688 82.273438 116.304688 C 83.003906 116.304688 83.730469 116.339844 84.453125 116.414062 C 85.179688 116.484375 85.898438 116.589844 86.609375 116.734375 C 87.324219 116.875 88.03125 117.050781 88.726562 117.265625 C 89.421875 117.476562 90.105469 117.71875 90.78125 118 C 91.453125 118.277344 92.109375 118.589844 92.75 118.933594 C 93.394531 119.277344 94.015625 119.648438 94.621094 120.054688 C 95.226562 120.460938 95.8125 120.894531 96.375 121.355469 C 96.9375 121.816406 97.476562 122.304688 97.988281 122.820312 C 98.503906 123.335938 98.992188 123.875 99.453125 124.4375 C 99.917969 125.003906 100.347656 125.585938 100.753906 126.191406 C 101.15625 126.796875 101.53125 127.421875 101.875 128.066406 C 102.21875 128.707031 102.527344 129.367188 102.808594 130.039062 C 103.085938 130.710938 103.332031 131.398438 103.542969 132.09375 C 103.753906 132.792969 103.929688 133.496094 104.070312 134.210938 C 104.214844 134.925781 104.320312 135.644531 104.390625 136.371094 C 104.464844 137.097656 104.5 137.824219 104.5 138.550781 Z M 104.5 138.550781 " fill-opacity="1" fill-rule="nonzero"/><path fill="#ecab2c" d="M 82.273438 164.289062 C 68.097656 164.289062 56.5625 152.742188 56.5625 138.550781 C 56.5625 124.359375 68.097656 112.8125 82.273438 112.8125 C 96.453125 112.8125 107.988281 124.359375 107.988281 138.550781 C 107.988281 152.742188 96.453125 164.289062 82.273438 164.289062 Z M 82.273438 119.800781 C 71.945312 119.800781 63.539062 128.210938 63.539062 138.550781 C 63.539062 148.890625 71.945312 157.304688 82.273438 157.304688 C 92.605469 157.304688 101.007812 148.890625 101.007812 138.550781 C 101.007812 128.210938 92.605469 119.800781 82.273438 119.800781 Z M 82.273438 119.800781 " fill-opacity="1" fill-rule="nonzero"/><path fill="#ecab2c" d="M 91.304688 143.730469 L 91.304688 133.558594 L 82.5 128.472656 L 73.699219 133.558594 L 73.699219 143.730469 L 82.5 148.816406 Z M 91.304688 143.730469 " fill-opacity="1" fill-rule="nonzero"/><path fill="#d6d5d0" d="M 173.460938 146.824219 C 180.207031 146.824219 185.675781 152.296875 185.675781 159.050781 L 185.675781 160.796875 L 161.246094 160.796875 L 161.246094 159.050781 C 161.246094 152.296875 166.714844 146.824219 173.460938 146.824219 Z M 173.460938 146.824219 " fill-opacity="1" fill-rule="nonzero"/><path fill="#d6d5d0" d="M 183.929688 136.347656 C 183.929688 137.035156 183.863281 137.714844 183.726562 138.390625 C 183.59375 139.066406 183.394531 139.722656 183.132812 140.355469 C 182.871094 140.992188 182.546875 141.597656 182.164062 142.167969 C 181.78125 142.738281 181.347656 143.269531 180.863281 143.757812 C 180.375 144.242188 179.847656 144.675781 179.277344 145.058594 C 178.703125 145.441406 178.101562 145.765625 177.464844 146.027344 C 176.832031 146.289062 176.175781 146.488281 175.503906 146.625 C 174.828125 146.757812 174.148438 146.824219 173.460938 146.824219 C 172.773438 146.824219 172.09375 146.757812 171.417969 146.625 C 170.742188 146.488281 170.089844 146.289062 169.453125 146.027344 C 168.820312 145.765625 168.214844 145.441406 167.644531 145.058594 C 167.074219 144.675781 166.542969 144.242188 166.058594 143.757812 C 165.570312 143.269531 165.136719 142.738281 164.757812 142.167969 C 164.375 141.597656 164.050781 140.992188 163.789062 140.355469 C 163.527344 139.722656 163.328125 139.066406 163.191406 138.390625 C 163.058594 137.714844 162.992188 137.035156 162.992188 136.347656 C 162.992188 135.660156 163.058594 134.976562 163.191406 134.300781 C 163.328125 133.628906 163.527344 132.972656 163.789062 132.335938 C 164.050781 131.699219 164.375 131.097656 164.757812 130.523438 C 165.136719 129.953125 165.570312 129.421875 166.058594 128.9375 C 166.542969 128.449219 167.074219 128.015625 167.644531 127.632812 C 168.214844 127.25 168.820312 126.929688 169.453125 126.664062 C 170.089844 126.402344 170.742188 126.203125 171.417969 126.070312 C 172.09375 125.933594 172.773438 125.867188 173.460938 125.867188 C 174.148438 125.867188 174.828125 125.933594 175.503906 126.070312 C 176.175781 126.203125 176.832031 126.402344 177.464844 126.664062 C 178.101562 126.929688 178.703125 127.25 179.277344 127.632812 C 179.847656 128.015625 180.375 128.449219 180.863281 128.9375 C 181.347656 129.421875 181.78125 129.953125 182.164062 130.523438 C 182.546875 131.097656 182.871094 131.699219 183.132812 132.335938 C 183.394531 132.972656 183.59375 133.628906 183.726562 134.300781 C 183.863281 134.976562 183.929688 135.660156 183.929688 136.347656 Z M 183.929688 136.347656 " fill-opacity="1" fill-rule="nonzero"/></svg>