<svg xmlns="http://www.w3.org/2000/svg" xmlns:xlink="http://www.w3.org/1999/xlink" width="300" zoomAndPan="magnify" viewBox="0 0 224.87999 225" height="300" preserveAspectRatio="xMidYMid meet" version="1.0"><defs><clipPath id="id1"><path d="M 36 129 L 90 129 L 90 190.253906 L 36 190.253906 Z M 36 129 " clip-rule="nonzero"/></clipPath><clipPath id="id2"><path d="M 114 174 L 220.382812 174 L 220.382812 180 L 114 180 Z M 114 174 " clip-rule="nonzero"/></clipPath></defs><path fill="#000000" d="M 56.667969 54.960938 C 56.414062 57.082031 56.164062 59.230469 56.453125 61.347656 C 56.546875 62.027344 56.699219 62.710938 57.046875 63.300781 C 57.394531 63.894531 57.960938 64.382812 58.632812 64.511719 C 59.257812 63.917969 60.121094 63.214844 60.496094 62.441406 C 60.976562 61.449219 60.976562 60.292969 60.859375 59.195312 C 60.738281 58.0625 60.488281 56.902344 59.828125 55.96875 C 59.171875 55.035156 57.796875 54.769531 56.667969 54.960938 Z M 56.667969 54.960938 " fill-opacity="1" fill-rule="nonzero"/><g clip-path="url(#id1)"><path fill="#007785" d="M 89.667969 180.53125 C 89.609375 172.179688 88.777344 162.890625 88.605469 157.703125 C 87.753906 132.457031 86.390625 129.796875 86.390625 129.796875 L 61.085938 132.210938 L 40.785156 134.683594 L 36.792969 190.09375 L 63.660156 190.175781 L 65.4375 174.585938 L 65.714844 190.179688 L 89.640625 190.25 Z M 89.667969 180.53125 " fill-opacity="1" fill-rule="nonzero"/></g><path fill="#000000" d="M 65.4375 174.769531 C 65.367188 174.769531 65.300781 174.730469 65.269531 174.660156 C 65.230469 174.566406 65.273438 174.457031 65.367188 174.417969 L 76.144531 169.785156 C 76.238281 169.742188 76.347656 169.785156 76.386719 169.878906 C 76.425781 169.972656 76.382812 170.082031 76.289062 170.121094 L 65.511719 174.757812 C 65.488281 174.765625 65.460938 174.769531 65.4375 174.769531 Z M 65.4375 174.769531 " fill-opacity="1" fill-rule="nonzero"/><g clip-path="url(#id2)"><path fill="#ffffff" d="M 114.695312 174.226562 L 220.152344 174.226562 L 220.152344 179.917969 L 114.695312 179.917969 Z M 114.695312 174.226562 " fill-opacity="1" fill-rule="nonzero"/><path fill="#000000" d="M 114.695312 174.226562 L 220.152344 174.226562 L 220.152344 179.917969 L 114.695312 179.917969 Z M 114.695312 174.226562 " fill-opacity="0.2667" fill-rule="nonzero"/></g><path fill="#000000" d="M 170.09375 94.523438 L 163.710938 130.414062 L 193.90625 133.308594 L 192.820312 100.535156 Z M 170.09375 94.523438 " fill-opacity="1" fill-rule="nonzero"/><path fill="#f8b498" d="M 180.800781 107.15625 L 182.300781 129.421875 L 171.402344 129.644531 L 171.636719 114.964844 Z M 180.800781 107.15625 " fill-opacity="1" fill-rule="nonzero"/><path fill="#ff3e4d" d="M 167.902344 127.246094 L 166.621094 127.402344 C 163.511719 127.777344 159.765625 130.703125 158.652344 133.628906 L 150.265625 153.285156 L 153.769531 138.691406 L 143.328125 136.585938 L 139.132812 156.601562 C 138.28125 159.59375 138.132812 162.742188 138.695312 165.800781 C 139.304688 169.097656 142.148438 171.507812 145.5 171.570312 C 149.300781 171.640625 152.851562 169.695312 154.835938 166.460938 L 161.5625 155.511719 L 169.121094 173.835938 L 208.007812 176.675781 C 212.328125 176.992188 216.238281 174.109375 217.207031 169.890625 C 218.050781 166.21875 217.527344 162.363281 215.738281 159.046875 L 203.933594 135.433594 C 203.398438 134.363281 202.6875 133.332031 201.847656 132.378906 C 198.757812 128.875 194.21875 126.988281 189.542969 126.96875 L 183.539062 126.945312 Z M 167.902344 127.246094 " fill-opacity="1" fill-rule="nonzero"/><path fill="#000000" d="M 165.710938 97.453125 C 165.710938 97.453125 158.046875 91.460938 165.890625 86.550781 C 171.246094 83.195312 180.386719 87.640625 180.386719 87.640625 Z M 165.710938 97.453125 " fill-opacity="1" fill-rule="nonzero"/><path fill="#000000" d="M 180.816406 87.734375 C 181.765625 87.929688 182.691406 88.199219 183.589844 88.546875 C 184.492188 88.894531 185.347656 89.308594 186.164062 89.796875 C 186.976562 90.28125 187.734375 90.828125 188.433594 91.433594 C 189.128906 92.039062 189.757812 92.691406 190.3125 93.394531 C 190.867188 94.09375 191.339844 94.832031 191.730469 95.601562 C 192.125 96.371094 192.425781 97.164062 192.636719 97.976562 C 192.847656 98.785156 192.964844 99.601562 192.988281 100.421875 C 193.015625 101.242188 192.945312 102.050781 192.78125 102.847656 C 192.613281 103.644531 192.359375 104.414062 192.011719 105.15625 C 191.667969 105.898438 191.234375 106.601562 190.71875 107.261719 C 190.203125 107.925781 189.613281 108.53125 188.949219 109.085938 C 188.285156 109.640625 187.558594 110.128906 186.773438 110.554688 C 185.984375 110.980469 185.148438 111.332031 184.269531 111.613281 C 183.386719 111.894531 182.476562 112.09375 181.535156 112.21875 C 180.597656 112.34375 179.644531 112.386719 178.679688 112.351562 C 177.71875 112.316406 176.761719 112.199219 175.8125 112.003906 C 174.859375 111.808594 173.9375 111.539062 173.035156 111.191406 C 172.136719 110.84375 171.28125 110.425781 170.464844 109.941406 C 169.652344 109.457031 168.894531 108.910156 168.195312 108.304688 C 167.496094 107.699219 166.871094 107.046875 166.316406 106.34375 C 165.761719 105.640625 165.285156 104.90625 164.894531 104.136719 C 164.503906 103.363281 164.203125 102.574219 163.992188 101.761719 C 163.78125 100.949219 163.664062 100.136719 163.636719 99.316406 C 163.613281 98.496094 163.683594 97.6875 163.847656 96.890625 C 164.011719 96.09375 164.269531 95.324219 164.613281 94.582031 C 164.960938 93.835938 165.394531 93.136719 165.90625 92.472656 C 166.421875 91.8125 167.011719 91.203125 167.675781 90.652344 C 168.339844 90.097656 169.066406 89.605469 169.855469 89.183594 C 170.644531 88.757812 171.476562 88.402344 172.359375 88.125 C 173.238281 87.84375 174.152344 87.640625 175.089844 87.515625 C 176.03125 87.394531 176.984375 87.347656 177.945312 87.386719 C 178.910156 87.421875 179.867188 87.539062 180.816406 87.734375 Z M 180.816406 87.734375 " fill-opacity="1" fill-rule="nonzero"/><path fill="#000000" d="M 171.636719 114.964844 L 179.667969 113.988281 L 171.515625 122.703125 Z M 171.636719 114.964844 " fill-opacity="1" fill-rule="nonzero"/><path fill="#f8b498" d="M 183.324219 108.230469 C 179.664062 117.816406 171.664062 116.992188 171.664062 116.992188 C 164.867188 116.890625 161.546875 112.523438 160.910156 107.203125 C 160.421875 103.113281 163.152344 97.046875 164.617188 93.589844 C 165.113281 92.421875 165.949219 91.417969 167.070312 90.8125 C 176.640625 85.605469 189.152344 92.957031 183.324219 108.230469 Z M 183.324219 108.230469 " fill-opacity="1" fill-rule="nonzero"/><path fill="#000000" d="M 165.71875 106.5625 L 164.804688 106.191406 C 164.503906 106.039062 164.375 105.675781 164.527344 105.339844 L 165.46875 103.824219 C 165.535156 103.714844 165.675781 103.683594 165.785156 103.75 C 165.894531 103.816406 165.929688 103.960938 165.859375 104.070312 L 164.933594 105.554688 C 164.898438 105.640625 164.933594 105.738281 164.996094 105.769531 L 165.894531 106.136719 C 166.011719 106.183594 166.070312 106.316406 166.019531 106.4375 C 165.984375 106.523438 165.898438 106.578125 165.804688 106.578125 C 165.777344 106.578125 165.746094 106.574219 165.71875 106.5625 Z M 165.71875 106.5625 " fill-opacity="1" fill-rule="nonzero"/><path fill="#000000" d="M 171.953125 103.136719 C 171.953125 103.398438 171.863281 103.617188 171.679688 103.800781 C 171.496094 103.984375 171.273438 104.078125 171.011719 104.078125 C 170.753906 104.078125 170.53125 103.984375 170.347656 103.800781 C 170.164062 103.617188 170.074219 103.398438 170.074219 103.136719 C 170.074219 102.878906 170.164062 102.65625 170.347656 102.472656 C 170.53125 102.289062 170.753906 102.199219 171.011719 102.199219 C 171.273438 102.199219 171.496094 102.289062 171.679688 102.472656 C 171.863281 102.65625 171.953125 102.878906 171.953125 103.136719 Z M 171.953125 103.136719 " fill-opacity="1" fill-rule="nonzero"/><path fill="#000000" d="M 163.851562 100.722656 C 163.375 100.644531 162.925781 100.960938 162.847656 101.4375 C 162.765625 101.910156 163.085938 102.359375 163.5625 102.441406 C 164.035156 102.519531 164.484375 102.199219 164.566406 101.726562 C 164.644531 101.25 164.324219 100.800781 163.851562 100.722656 Z M 163.851562 100.722656 " fill-opacity="1" fill-rule="nonzero"/><path fill="#000000" d="M 164.386719 108.570312 C 164.28125 108.5 164.25 108.355469 164.320312 108.25 C 164.390625 108.144531 164.535156 108.113281 164.640625 108.183594 C 164.664062 108.199219 167.164062 109.800781 169.664062 108.347656 C 169.773438 108.285156 169.914062 108.320312 169.980469 108.429688 C 170.042969 108.542969 170.003906 108.683594 169.894531 108.746094 C 169.023438 109.253906 168.160156 109.429688 167.386719 109.429688 C 165.722656 109.425781 164.460938 108.617188 164.386719 108.570312 Z M 164.386719 108.570312 " fill-opacity="1" fill-rule="nonzero"/><path fill="#000000" d="M 164.136719 95.746094 C 162.902344 95.757812 162.128906 96.367188 161.746094 96.785156 C 161.554688 96.988281 161.511719 97.285156 161.625 97.539062 C 161.761719 97.855469 162.109375 98.027344 162.445312 97.945312 C 163.035156 97.796875 163.679688 97.816406 164.691406 97.820312 C 166.023438 97.824219 165.851562 96.726562 165.851562 96.726562 C 165.851562 96.726562 165.71875 95.730469 164.136719 95.746094 Z M 164.136719 95.746094 " fill-opacity="1" fill-rule="nonzero"/><path fill="#000000" d="M 172.828125 97.207031 C 174.339844 97.652344 175.734375 99.03125 176.070312 99.558594 C 176.234375 99.816406 176.191406 100.117188 175.96875 100.316406 C 175.695312 100.566406 175.210938 100.609375 174.824219 100.414062 C 174.144531 100.066406 172.707031 99.332031 171.460938 98.980469 C 169.816406 98.515625 170.390625 97.535156 170.390625 97.535156 C 170.390625 97.535156 170.882812 96.636719 172.828125 97.207031 Z M 172.828125 97.207031 " fill-opacity="1" fill-rule="nonzero"/><path fill="#000000" d="M 187.78125 98.707031 C 167.703125 96.472656 170.613281 88.496094 170.613281 88.496094 C 190.878906 87.398438 187.78125 98.707031 187.78125 98.707031 Z M 187.78125 98.707031 " fill-opacity="1" fill-rule="nonzero"/><path fill="#000000" d="M 191.734375 101.757812 L 180.992188 108.152344 L 181.894531 95.988281 Z M 191.734375 101.757812 " fill-opacity="1" fill-rule="nonzero"/><path fill="#f8b498" d="M 186.277344 105.199219 C 184.132812 104.035156 181.453125 104.828125 180.289062 106.972656 C 179.125 109.113281 179.917969 111.792969 182.0625 112.957031 C 184.207031 114.121094 186.890625 113.328125 188.054688 111.183594 C 189.21875 109.042969 188.421875 106.363281 186.277344 105.199219 Z M 186.277344 105.199219 " fill-opacity="1" fill-rule="nonzero"/><path fill="#f8b498" d="M 182.398438 109.75 C 183.652344 106.636719 186.382812 108.21875 186.382812 108.21875 " fill-opacity="1" fill-rule="nonzero"/><path fill="#f8b498" d="M 173.148438 132.824219 C 164.679688 132.824219 167.90625 127.246094 167.90625 127.246094 L 170.90625 126.769531 L 185.457031 126.910156 C 185.261719 127.792969 181.617188 132.824219 173.148438 132.824219 Z M 173.148438 132.824219 " fill-opacity="1" fill-rule="nonzero"/><path fill="#f8b498" d="M 179.285156 165.054688 L 168.371094 166.558594 L 168.566406 172.007812 L 179.519531 174.257812 C 179.519531 174.257812 179.328125 166.933594 179.285156 165.054688 Z M 179.285156 165.054688 " fill-opacity="1" fill-rule="nonzero"/><path fill="#000000" d="M 161.347656 155.589844 C 161.328125 155.542969 159.75 151.066406 160.625 146.0625 C 161.496094 141.105469 162.234375 138.871094 162.242188 138.847656 C 162.28125 138.726562 162.414062 138.660156 162.535156 138.703125 C 162.65625 138.742188 162.71875 138.871094 162.679688 138.996094 C 162.671875 139.015625 161.945312 141.222656 161.082031 146.144531 C 160.226562 151.019531 161.765625 155.390625 161.78125 155.433594 C 161.824219 155.554688 161.761719 155.6875 161.640625 155.730469 C 161.617188 155.738281 161.589844 155.742188 161.5625 155.742188 C 161.46875 155.742188 161.378906 155.683594 161.347656 155.589844 Z M 161.347656 155.589844 " fill-opacity="1" fill-rule="nonzero"/><path fill="#000000" d="M 165.570312 154.382812 L 166.445312 152.660156 L 168.332031 153.578125 L 167.496094 155.300781 Z M 165.570312 154.382812 " fill-opacity="1" fill-rule="nonzero"/><path fill="#000000" d="M 156.414062 175.527344 L 156.128906 176.601562 C 156.066406 176.832031 156.238281 176.902344 156.375 176.699219 L 157.019531 175.769531 C 156.917969 175.503906 156.683594 175.394531 156.414062 175.527344 Z M 156.414062 175.527344 " fill-opacity="1" fill-rule="nonzero"/><path fill="#007785" d="M 165.644531 154.21875 L 166.609375 154.683594 L 167.574219 155.140625 L 159.445312 172.429688 L 159.402344 172.519531 L 159.386719 172.511719 L 156.957031 175.890625 C 156.851562 175.644531 156.617188 175.539062 156.359375 175.644531 L 157.328125 171.667969 L 157.300781 171.65625 L 157.363281 171.535156 Z M 165.644531 154.21875 " fill-opacity="1" fill-rule="nonzero"/><path fill="#f8b498" d="M 166.363281 152.828125 L 166.585938 152.390625 C 166.890625 151.785156 167.558594 151.5 168.070312 151.757812 C 168.566406 152.003906 168.746094 152.671875 168.46875 153.269531 L 168.253906 153.738281 Z M 166.363281 152.828125 " fill-opacity="1" fill-rule="nonzero"/><path fill="#f8b498" d="M 151.582031 174.96875 C 152.027344 175.136719 152.523438 175.046875 152.875 174.734375 L 155.960938 171.972656 C 157.386719 170.695312 159.648438 169.804688 161.476562 170.734375 C 162.042969 171.019531 162.5 171.492188 163.011719 171.863281 C 164.308594 172.800781 165.875 172.707031 167.367188 172.363281 C 168.421875 172.121094 169.433594 171.6875 170.339844 171.101562 C 170.613281 170.921875 170.878906 170.730469 171.132812 170.519531 C 171.171875 170.488281 171.398438 170.339844 171.398438 170.285156 C 171.398438 170.28125 171.566406 166.378906 171.566406 166.378906 L 160.136719 166.210938 C 158.007812 166.179688 155.992188 167.082031 154.605469 168.691406 L 151.023438 172.847656 C 150.429688 173.539062 150.71875 174.640625 151.582031 174.96875 Z M 151.582031 174.96875 " fill-opacity="1" fill-rule="nonzero"/><path fill="#000000" d="M 179.382812 165.039062 C 179.359375 164.910156 179.445312 164.792969 179.570312 164.769531 L 199.886719 161.066406 L 193.699219 147.976562 C 193.644531 147.859375 193.695312 147.722656 193.808594 147.667969 C 193.925781 147.613281 194.0625 147.664062 194.117188 147.777344 L 200.433594 161.140625 C 200.464844 161.207031 200.464844 161.28125 200.429688 161.34375 C 200.398438 161.410156 200.335938 161.453125 200.265625 161.46875 L 179.652344 165.222656 C 179.636719 165.226562 179.625 165.226562 179.609375 165.226562 C 179.5 165.226562 179.402344 165.148438 179.382812 165.039062 Z M 179.382812 165.039062 " fill-opacity="1" fill-rule="nonzero"/><path fill="#007785" d="M 112.414062 135.863281 L 163.265625 135.863281 L 175.246094 173.152344 L 124.445312 173.152344 Z M 112.414062 135.863281 " fill-opacity="1" fill-rule="nonzero"/><path fill="#007785" d="M 124.445312 172.25 L 191.734375 172.25 L 191.734375 177.007812 L 124.445312 177.007812 Z M 124.445312 172.25 " fill-opacity="1" fill-rule="nonzero"/><path fill="#ffffff" d="M 144.691406 158.863281 C 144.691406 159.304688 144.605469 159.730469 144.4375 160.136719 C 144.265625 160.542969 144.027344 160.902344 143.714844 161.214844 C 143.402344 161.527344 143.042969 161.765625 142.636719 161.933594 C 142.230469 162.101562 141.804688 162.1875 141.363281 162.1875 C 140.921875 162.1875 140.496094 162.101562 140.089844 161.933594 C 139.683594 161.765625 139.324219 161.527344 139.011719 161.214844 C 138.699219 160.902344 138.457031 160.542969 138.289062 160.136719 C 138.121094 159.730469 138.035156 159.304688 138.035156 158.863281 C 138.035156 158.425781 138.121094 158 138.289062 157.59375 C 138.457031 157.1875 138.699219 156.828125 139.011719 156.515625 C 139.324219 156.203125 139.683594 155.964844 140.089844 155.792969 C 140.496094 155.625 140.921875 155.542969 141.363281 155.542969 C 141.804688 155.542969 142.230469 155.625 142.636719 155.792969 C 143.042969 155.964844 143.402344 156.203125 143.714844 156.515625 C 144.027344 156.828125 144.265625 157.1875 144.4375 157.59375 C 144.605469 158 144.691406 158.425781 144.691406 158.863281 Z M 144.691406 158.863281 " fill-opacity="1" fill-rule="nonzero"/><path fill="#f8b498" d="M 43.640625 97.667969 C 43.640625 97.667969 18.316406 131.433594 18.316406 131.433594 C 12.695312 139.226562 0.261719 130.847656 5.460938 122.714844 L 20.332031 100.503906 Z M 43.640625 97.667969 " fill-opacity="1" fill-rule="nonzero"/><path fill="#ff3e4d" d="M 35.292969 119.394531 L 12.621094 104.488281 C 18.273438 95.753906 32.582031 71.554688 41.972656 74.640625 C 67.5 84.652344 39.496094 112.496094 35.292969 119.394531 Z M 35.292969 119.394531 " fill-opacity="1" fill-rule="nonzero"/><path fill="#ff3e4d" d="M 85.082031 101.871094 L 96.234375 99.300781 C 95.582031 75.429688 79.332031 74.371094 79.332031 74.371094 Z M 85.082031 101.871094 " fill-opacity="1" fill-rule="nonzero"/><path fill="#ff3e4d" d="M 33.660156 89.839844 L 40.113281 136.585938 L 80.199219 136.585938 C 83.824219 120.796875 96.890625 79.175781 81.457031 74.800781 C 67.824219 70.9375 57.777344 70.9375 39.617188 74.269531 C 33.9375 74.617188 35.328125 86.085938 33.660156 89.839844 Z M 33.660156 89.839844 " fill-opacity="1" fill-rule="nonzero"/><path fill="#000000" d="M 38.726562 116.84375 L 34.402344 98.589844 C 34.378906 98.484375 34.441406 98.378906 34.546875 98.355469 C 34.652344 98.328125 34.757812 98.394531 34.78125 98.5 L 39.105469 116.753906 C 39.128906 116.859375 39.066406 116.964844 38.960938 116.988281 C 38.945312 116.992188 38.929688 116.992188 38.914062 116.992188 C 38.828125 116.992188 38.746094 116.933594 38.726562 116.84375 Z M 38.726562 116.84375 " fill-opacity="1" fill-rule="nonzero"/><path fill="#000000" d="M 85.492188 110.746094 C 85.386719 110.730469 85.3125 110.632812 85.328125 110.527344 L 87.929688 92.273438 C 87.945312 92.164062 88.039062 92.089844 88.152344 92.105469 C 88.257812 92.121094 88.332031 92.222656 88.316406 92.328125 L 85.714844 110.582031 C 85.699219 110.679688 85.617188 110.75 85.519531 110.75 C 85.511719 110.75 85.503906 110.75 85.492188 110.746094 Z M 85.492188 110.746094 " fill-opacity="1" fill-rule="nonzero"/><path fill="#f8b498" d="M 58.460938 118.632812 L 72.921875 119.125 L 79.332031 105.507812 C 62.796875 98.910156 56.488281 110.070312 56.488281 110.070312 Z M 58.460938 118.632812 " fill-opacity="1" fill-rule="nonzero"/><path fill="#f8b498" d="M 59.171875 118.378906 L 14.65625 134.230469 L 12.058594 117.679688 L 57.496094 109.894531 Z M 59.171875 118.378906 " fill-opacity="1" fill-rule="nonzero"/><path fill="#000000" d="M 17.011719 116.832031 C 16.996094 116.726562 17.066406 116.625 17.171875 116.605469 L 28.03125 114.746094 C 28.144531 114.730469 28.238281 114.800781 28.257812 114.90625 C 28.273438 115.011719 28.203125 115.113281 28.097656 115.132812 L 17.238281 116.992188 C 17.226562 116.992188 17.214844 116.992188 17.207031 116.992188 C 17.113281 116.992188 17.027344 116.925781 17.011719 116.832031 Z M 17.011719 116.832031 " fill-opacity="1" fill-rule="nonzero"/><path fill="#ffffff" d="M 121.179688 98.328125 C 107.753906 93.78125 74.925781 99.300781 74.925781 99.300781 L 56.628906 142.214844 L 59.640625 145.558594 Z M 121.179688 98.328125 " fill-opacity="1" fill-rule="nonzero"/><path fill="#000000" d="M 101.714844 135.757812 C 98.957031 141.105469 91.382812 141.140625 91.382812 141.140625 L 112.367188 99.527344 L 121.179688 98.328125 Z M 101.714844 135.757812 " fill-opacity="1" fill-rule="nonzero"/><path fill="#007785" d="M 92.796875 140.941406 L 59.640625 145.558594 L 77.488281 102.542969 L 114.042969 99.300781 Z M 92.796875 140.941406 " fill-opacity="1" fill-rule="nonzero"/><path fill="#000000" d="M 92.796875 140.941406 L 59.640625 145.558594 L 77.488281 102.542969 L 114.042969 99.300781 Z M 92.796875 140.941406 " fill-opacity="0.4588" fill-rule="nonzero"/><path fill="#ffffff" d="M 104.492188 97.304688 L 112.664062 78.554688 L 116.878906 78.554688 L 121.179688 98.328125 Z M 104.492188 97.304688 " fill-opacity="1" fill-rule="nonzero"/><path fill="#f8b498" d="M 106.695312 126.109375 L 97.667969 119.515625 C 97.136719 119.128906 96.96875 118.410156 97.277344 117.828125 C 97.609375 117.199219 98.378906 116.945312 99.019531 117.25 L 105.714844 120.441406 L 97.867188 114.734375 C 97.378906 114.378906 97.21875 113.726562 97.488281 113.1875 C 97.796875 112.566406 98.550781 112.320312 99.167969 112.636719 L 106.871094 116.628906 L 98.296875 109.921875 C 97.707031 109.460938 97.550781 108.632812 97.9375 107.992188 C 98.371094 107.269531 99.320312 107.050781 100.027344 107.515625 L 109.28125 113.597656 L 103.15625 107.722656 C 102.710938 107.292969 102.707031 106.574219 103.15625 106.144531 C 103.535156 105.777344 104.117188 105.734375 104.550781 106.035156 L 114.867188 113.289062 C 114.867188 113.289062 118.859375 116.617188 114.738281 122.898438 C 110.621094 129.175781 105.757812 127.988281 105.757812 127.988281 Z M 106.695312 126.109375 " fill-opacity="1" fill-rule="nonzero"/><path fill="#000000" d="M 80.101562 50.636719 C 89.449219 41.65625 79.359375 37.976562 79.359375 37.976562 Z M 80.101562 50.636719 " fill-opacity="1" fill-rule="nonzero"/><path fill="#f8b498" d="M 61.457031 52.707031 L 55.703125 75.292969 L 69.15625 75.730469 L 71.324219 63.3125 Z M 61.457031 52.707031 " fill-opacity="1" fill-rule="nonzero"/><path fill="#000000" d="M 71.097656 64.699219 L 60.664062 59.347656 C 60.359375 67.765625 70 70.886719 70 70.886719 Z M 71.097656 64.699219 " fill-opacity="1" fill-rule="nonzero"/><path fill="#f8b498" d="M 58 51.828125 C 57.578125 63.851562 64.574219 65.417969 64.574219 65.417969 C 70.6875 68.195312 75.382812 66.039062 78.171875 61.503906 C 80.363281 57.941406 80.875 49.140625 80.996094 45.535156 C 81.03125 44.457031 80.0625 41.257812 79.449219 40.371094 C 73.171875 31.332031 58.625 33.90625 58 51.828125 Z M 58 51.828125 " fill-opacity="1" fill-rule="nonzero"/><path fill="#000000" d="M 77.453125 53.984375 C 77.933594 53.972656 78.332031 54.351562 78.34375 54.832031 C 78.355469 55.3125 77.972656 55.707031 77.496094 55.71875 C 77.015625 55.730469 76.617188 55.351562 76.605469 54.871094 C 76.59375 54.390625 76.976562 53.996094 77.453125 53.984375 Z M 77.453125 53.984375 " fill-opacity="1" fill-rule="nonzero"/><path fill="#000000" d="M 69.929688 52.367188 C 70.410156 52.355469 70.808594 52.734375 70.816406 53.214844 C 70.828125 53.695312 70.449219 54.089844 69.96875 54.101562 C 69.488281 54.113281 69.089844 53.734375 69.082031 53.253906 C 69.070312 52.773438 69.449219 52.378906 69.929688 52.367188 Z M 69.929688 52.367188 " fill-opacity="1" fill-rule="nonzero"/><path fill="#000000" d="M 73.125 58.25 C 73.121094 58.109375 73.230469 57.996094 73.371094 57.992188 L 74.546875 57.957031 L 74.324219 55.148438 C 74.3125 55.011719 74.417969 54.890625 74.554688 54.878906 C 74.691406 54.859375 74.8125 54.972656 74.824219 55.109375 L 75.070312 58.179688 C 75.074219 58.25 75.050781 58.316406 75.003906 58.367188 C 74.957031 58.417969 74.894531 58.449219 74.824219 58.453125 L 73.382812 58.492188 C 73.382812 58.492188 73.378906 58.492188 73.378906 58.492188 C 73.242188 58.492188 73.128906 58.382812 73.125 58.25 Z M 73.125 58.25 " fill-opacity="1" fill-rule="nonzero"/><path fill="#000000" d="M 71.578125 47.210938 C 69.09375 46.648438 67.535156 47.371094 66.542969 47.871094 C 66.058594 48.117188 65.757812 48.605469 65.90625 49.125 C 66.058594 49.671875 66.617188 49.976562 67.167969 49.84375 C 68.648438 49.488281 70.210938 49.507812 71.277344 49.589844 C 71.984375 49.640625 72.582031 49.074219 72.566406 48.367188 C 72.550781 47.796875 72.132812 47.339844 71.578125 47.210938 Z M 71.578125 47.210938 " fill-opacity="1" fill-rule="nonzero"/><path fill="#000000" d="M 77.21875 48.488281 C 78.886719 48.714844 79.636719 49.863281 80.101562 50.636719 C 80.328125 51.011719 80.378906 51.5625 80.144531 52.007812 C 79.902344 52.472656 79.476562 52.589844 79.179688 52.296875 C 78.375 51.515625 77.417969 51.058594 76.746094 50.808594 C 76.300781 50.644531 76.09375 49.933594 76.296875 49.269531 C 76.460938 48.738281 76.84375 48.4375 77.21875 48.488281 Z M 77.21875 48.488281 " fill-opacity="1" fill-rule="nonzero"/><path fill="#000000" d="M 54.929688 43.742188 C 55.523438 40.539062 57.378906 37.65625 60.488281 35.875 C 64.476562 33.597656 69.65625 33.054688 74.285156 33.601562 C 78.160156 34.058594 81.4375 35.980469 82.402344 39.480469 C 83.84375 44.703125 79.261719 46.34375 76.957031 46.222656 C 75.800781 46.164062 74.703125 45.789062 73.710938 45.265625 C 70.125 43.378906 64.886719 42.527344 64.886719 42.527344 C 64.152344 50.746094 57.929688 54.65625 57.929688 54.65625 C 57.929688 54.65625 54.214844 47.605469 54.929688 43.742188 Z M 54.929688 43.742188 " fill-opacity="1" fill-rule="nonzero"/><path fill="#f8b498" d="M 57.414062 47.167969 C 59.753906 47.027344 61.761719 48.804688 61.902344 51.144531 C 62.042969 53.480469 60.261719 55.488281 57.921875 55.625 C 55.582031 55.765625 53.574219 53.988281 53.433594 51.648438 C 53.292969 49.3125 55.074219 47.304688 57.414062 47.167969 Z M 57.414062 47.167969 " fill-opacity="1" fill-rule="nonzero"/><path fill="#000000" d="M 59.085938 53.117188 C 59.082031 52.105469 58.796875 51.316406 58.238281 50.78125 C 57.375 49.957031 56.109375 50 56.105469 50 C 55.984375 50.007812 55.851562 49.898438 55.84375 49.757812 C 55.835938 49.621094 55.945312 49.503906 56.082031 49.496094 C 56.140625 49.492188 57.558594 49.445312 58.582031 50.417969 C 59.246094 51.050781 59.585938 51.957031 59.589844 53.117188 C 59.589844 53.257812 59.476562 53.371094 59.335938 53.371094 C 59.199219 53.371094 59.085938 53.257812 59.085938 53.117188 Z M 59.085938 53.117188 " fill-opacity="1" fill-rule="nonzero"/><path fill="#f8b498" d="M 75.910156 74.300781 C 75.910156 74.300781 72.472656 82.410156 63.515625 82.007812 C 54.558594 81.605469 51.105469 72.496094 51.105469 72.496094 C 64.921875 70.230469 75.910156 74.300781 75.910156 74.300781 Z M 75.910156 74.300781 " fill-opacity="1" fill-rule="nonzero"/><path fill="#000000" d="M 68.863281 60.347656 C 68.792969 60.226562 68.832031 60.074219 68.953125 60.003906 C 69.074219 59.933594 69.226562 59.972656 69.296875 60.09375 C 70.601562 62.316406 73.996094 61.449219 74.03125 61.4375 C 74.160156 61.402344 74.300781 61.484375 74.339844 61.617188 C 74.375 61.75 74.296875 61.886719 74.160156 61.925781 C 74.09375 61.941406 73.382812 62.125 72.472656 62.125 C 71.269531 62.125 69.714844 61.804688 68.863281 60.347656 Z M 68.863281 60.347656 " fill-opacity="1" fill-rule="nonzero"/><path fill="#ffffff" d="M 56.628906 71.65625 L 63.855469 79.316406 L 69.761719 72.265625 L 76.6875 73.242188 L 72.566406 88.960938 L 63.929688 82.839844 L 54.839844 87.335938 L 49.769531 72.660156 Z M 56.628906 71.65625 " fill-opacity="1" fill-rule="nonzero"/><path fill="#000000" d="M 63.929688 104.410156 C 63.820312 104.410156 63.730469 104.320312 63.730469 104.210938 L 63.730469 83.285156 C 63.730469 83.175781 63.820312 83.085938 63.929688 83.085938 C 64.039062 83.085938 64.128906 83.175781 64.128906 83.285156 L 64.128906 104.210938 C 64.128906 104.320312 64.039062 104.410156 63.929688 104.410156 Z M 63.929688 104.410156 " fill-opacity="1" fill-rule="nonzero"/><path fill="#ff3e4d" d="M 165.003906 109.140625 C 165.253906 109.503906 165.667969 109.660156 166.066406 109.746094 C 166.941406 109.9375 167.898438 109.875 168.65625 109.339844 C 168.828125 109.21875 169.003906 109.046875 169.03125 108.820312 C 169.058594 108.59375 168.933594 108.375 168.765625 108.253906 C 168.597656 108.136719 168.394531 108.097656 168.199219 108.074219 C 167.382812 107.984375 166.566406 108.136719 165.75 108.085938 C 165.476562 108.070312 165.113281 107.882812 164.921875 108.136719 C 164.722656 108.394531 164.839844 108.90625 165.003906 109.140625 Z M 165.003906 109.140625 " fill-opacity="0.5569" fill-rule="nonzero"/></svg>